<svg width="259" height="55" viewBox="0 0 259 55" fill="none" xmlns="http://www.w3.org/2000/svg">
<path d="M10.793 46V33.5244H23.8301V25.7607H10.793V18.998H25.1973V10.7705H0.441406V46H10.793ZM51.0202 46H62.0553L50.5563 10.7705H37.568L26.069 46H36.6159L38.4469 38.9932H49.1891L51.0202 46ZM43.7204 18.9004H43.9157L47.3092 31.6934H40.3268L43.7204 18.9004ZM84.4846 46C92.0286 46 96.9114 41.9229 96.9114 35.7461C96.9114 31.083 92.9319 27.4941 88.1712 27.3721V27.1768C92.2483 26.6641 95.3245 23.6123 95.3245 19.5596C95.3245 14.0664 91.1009 10.7705 83.8987 10.7705H66.5891V46H84.4846ZM76.9407 17.875H81.0911C83.7034 17.875 85.2659 19.1934 85.2659 21.3662C85.2659 23.4902 83.6057 24.8818 80.9446 24.8818H76.9407V17.875ZM76.9407 38.8955V30.8145H81.4329C84.5335 30.8145 86.3889 32.2793 86.3889 34.7939C86.3889 37.4551 84.5579 38.8955 81.3596 38.8955H76.9407ZM112.041 18.4121H116.338C119.121 18.4121 121.001 20.292 121.001 22.9043C121.001 25.5654 119.219 27.3477 116.313 27.3477H112.041V18.4121ZM112.041 34.1836H115.434L121.001 46H132.573L125.884 32.6455C129.57 30.8877 131.572 26.8838 131.572 22.7334C131.572 15.1895 126.738 10.7705 117.339 10.7705H101.689V46H112.041V34.1836ZM147.483 46V10.7705H137.131V46H147.483ZM145.725 8.03613L152.415 0.199219H143.919L138.254 8.03613H145.725ZM170.352 46.6104C179.849 46.6104 186.709 40.5801 186.758 31.791H176.846C176.529 35.8682 173.941 38.4805 170.376 38.4805C166.079 38.4805 163.418 34.7207 163.418 28.3486C163.418 22.0498 166.104 18.29 170.352 18.29C173.941 18.29 176.553 20.9512 176.797 24.9551H186.709C186.685 16.2148 179.654 10.1602 170.352 10.1602C159.585 10.1602 152.871 16.752 152.871 28.373C152.871 39.9941 159.561 46.6104 170.352 46.6104ZM202.4 46V10.7705H192.049V46H202.4ZM225.538 10.1602C214.649 10.1602 207.789 17.1426 207.789 28.3975C207.789 39.6523 214.624 46.6104 225.538 46.6104C236.426 46.6104 243.287 39.6523 243.287 28.3975C243.287 17.1426 236.426 10.1602 225.538 10.1602ZM225.538 18.4121C229.859 18.4121 232.74 22.2939 232.74 28.3975C232.74 34.4766 229.883 38.3584 225.538 38.3584C221.192 38.3584 218.335 34.4766 218.335 28.3975C218.335 22.2939 221.216 18.4121 225.538 18.4121Z" fill="#EF5285"/>
<path d="M253.777 29.3984C256.585 29.3984 258.856 27.1279 258.856 24.3203C258.856 21.5127 256.585 19.2422 253.777 19.2422C250.97 19.2422 248.699 21.5127 248.699 24.3203C248.699 27.1279 250.97 29.3984 253.777 29.3984ZM255.389 54.3984L258.587 39.335H249.554L248.26 54.3984H255.389Z" fill="#2E3349"/>
</svg>
