<svg width="1024" height="1024" viewBox="0 0 1024 1024" fill="none" xmlns="http://www.w3.org/2000/svg">
<g clip-path="url(#clip0)">
<rect width="1024" height="1024" rx="224" fill="#252525"/>
<rect x="967.289" y="407" width="209" height="209" transform="rotate(90 967.289 407)" fill="#A750EC"/>
<rect x="-299" y="616" width="639" height="209" fill="url(#paint0_linear)"/>
<rect x="758.289" y="198" width="209" height="209" transform="rotate(90 758.289 198)" fill="#77C3EE"/>
<rect x="549.289" y="616" width="209" height="209" transform="rotate(90 549.289 616)" fill="#ECDC50"/>
<rect x="122.289" y="407" width="636" height="209" fill="url(#paint1_linear)"/>
<rect x="56" y="407" width="209" height="209" fill="#E44949"/>
<rect x="115.471" y="466.472" width="90.0569" height="90.0569" fill="#252525"/>
<rect x="-583" y="407" width="639" height="209" fill="url(#paint2_linear)"/>
<rect x="-90" y="198" width="639" height="209" fill="url(#paint3_linear)"/>
</g>
<defs>
<linearGradient id="paint0_linear" x1="340" y1="721" x2="-299" y2="721" gradientUnits="userSpaceOnUse">
<stop stop-color="#ECDC50" stop-opacity="0.15"/>
<stop offset="1" stop-color="#ECDC50" stop-opacity="0"/>
</linearGradient>
<linearGradient id="paint1_linear" x1="758.289" y1="511.5" x2="122.289" y2="511.5" gradientUnits="userSpaceOnUse">
<stop stop-color="#A750EC" stop-opacity="0.1"/>
<stop offset="1" stop-color="#A750EC" stop-opacity="0"/>
</linearGradient>
<linearGradient id="paint2_linear" x1="56" y1="511.5" x2="-583" y2="511.5" gradientUnits="userSpaceOnUse">
<stop stop-color="#E44949" stop-opacity="0.15"/>
<stop offset="1" stop-color="#E44949" stop-opacity="0"/>
</linearGradient>
<linearGradient id="paint3_linear" x1="549" y1="303" x2="-90" y2="303" gradientUnits="userSpaceOnUse">
<stop stop-color="#77C3EE" stop-opacity="0.15"/>
<stop offset="1" stop-color="#77C3EE" stop-opacity="0"/>
</linearGradient>
<clipPath id="clip0">
<rect width="1024" height="1024" rx="224" fill="white"/>
</clipPath>
</defs>
</svg>
