<svg width="1024" height="1024" viewBox="0 0 1024 1024" fill="none" xmlns="http://www.w3.org/2000/svg">
<rect width="1024" height="1024" rx="224" fill="#1D8086"/>
<path d="M498.457 400.88H525.543V482.089H606.8V509.158H525.543V590.367H498.457V509.158H417.2V482.089H498.457V400.88Z" fill="white"/>
<path fill-rule="evenodd" clip-rule="evenodd" d="M653.523 736.013L508.17 736.017V797.807C508.17 805.607 514.497 811.93 522.302 811.93C530.107 811.93 536.434 805.607 536.434 797.807V797.805H563.519V797.807C563.519 808.168 559.692 817.635 553.373 824.874C545.817 833.53 534.699 839 522.302 839C499.538 839 481.085 820.557 481.085 797.807V736.013H370.477C317.747 736.013 275 693.292 275 640.593V357.715C275 305.016 317.747 262.295 370.477 262.295H464.427V233.049C464.427 206.512 485.952 185 512.504 185H519.673C546.226 185 567.751 206.512 567.751 233.049V262.295H653.523C706.253 262.295 749 305.016 749 357.715V640.593C749 693.292 706.253 736.013 653.523 736.013ZM653.523 289.365C691.294 289.365 721.914 319.966 721.914 357.715V640.593C721.914 678.342 691.294 708.943 653.523 708.943H370.477C332.706 708.943 302.086 678.342 302.086 640.593V357.715C302.086 319.966 332.706 289.365 370.477 289.365H653.523ZM519.673 212.07C531.267 212.07 540.665 221.462 540.665 233.049V262.295H491.512V233.049C491.512 221.462 500.911 212.07 512.504 212.07H519.673Z" fill="white"/>
</svg>
